<svg width="60" height="60" viewBox="0 0 60 60" fill="none" xmlns="http://www.w3.org/2000/svg">
<path d="M52.9688 9.375H7.03125C6.77344 9.375 6.5625 9.58594 6.5625 9.84375V13.5938C6.5625 13.8516 6.77344 14.0625 7.03125 14.0625H52.9688C53.2266 14.0625 53.4375 13.8516 53.4375 13.5938V9.84375C53.4375 9.58594 53.2266 9.375 52.9688 9.375ZM52.9688 45.9375H7.03125C6.77344 45.9375 6.5625 46.1484 6.5625 46.4062V50.1562C6.5625 50.4141 6.77344 50.625 7.03125 50.625H52.9688C53.2266 50.625 53.4375 50.4141 53.4375 50.1562V46.4062C53.4375 46.1484 53.2266 45.9375 52.9688 45.9375ZM52.9688 27.6562H7.03125C6.77344 27.6562 6.5625 27.8672 6.5625 28.125V31.875C6.5625 32.1328 6.77344 32.3438 7.03125 32.3438H52.9688C53.2266 32.3438 53.4375 32.1328 53.4375 31.875V28.125C53.4375 27.8672 53.2266 27.6562 52.9688 27.6562Z" fill="#213F7D"/>
</svg>
