<svg width="16" height="16" viewBox="0 0 16 16" fill="none" xmlns="http://www.w3.org/2000/svg">
<path opacity="0.4" d="M4.76289 11.8763C4.27079 11.7742 3.7942 11.608 3.34529 11.382C2.56301 11.498 1.76397 11.4051 1.02915 11.1127C0.608989 10.9443 0.239607 11.4464 0.525982 11.7969C0.960104 12.3262 1.47963 12.7791 2.06308 13.137C3.57369 14.0704 5.44709 14.2437 7.10015 13.6828C7.54342 13.0917 7.83338 12.4 7.94414 11.6695C6.92104 12.0204 5.8228 12.0918 4.76289 11.8763ZM4.33064 7.94416C3.97965 6.92105 3.90826 5.82276 4.12385 4.76283C4.22595 4.27076 4.39207 3.79419 4.61799 3.34529C4.50216 2.56297 4.59505 1.76394 4.88727 1.02906C5.05573 0.609021 4.55354 0.239454 4.20308 0.525769C3.67384 0.95986 3.22094 1.47942 2.86312 2.06294C1.92978 3.57362 1.75644 5.44697 2.31723 7.10004C2.90838 7.54333 3.6001 7.83333 4.33064 7.94416ZM11.6695 8.05585C12.0204 9.07896 12.0918 10.1772 11.8762 11.2372C11.7741 11.7293 11.608 12.2058 11.3821 12.6547C11.4979 13.437 11.405 14.2361 11.1128 14.9709C10.9444 15.391 11.4466 15.7606 11.797 15.4742C12.3262 15.0401 12.7791 14.5206 13.137 13.9371C14.0703 12.4264 14.2437 10.553 13.6829 8.89997C13.0917 8.45668 12.4 8.16668 11.6695 8.05585ZM15.4741 4.20307C15.04 3.67382 14.5205 3.22086 13.937 2.86293C12.4264 1.92964 10.553 1.75636 8.89994 2.31715C8.45666 2.90827 8.16669 3.59999 8.05595 4.33051C9.07905 3.97958 10.1773 3.90819 11.2372 4.12373C11.7293 4.22584 12.2059 4.39199 12.6548 4.61793C13.4371 4.50198 14.2361 4.59488 14.9709 4.88722C15.3911 5.05567 15.7605 4.55354 15.4741 4.20307Z" fill="#213F7D" fill-opacity="0.6"/>
<path d="M15.8305 8.56572C15.3056 6.34368 13.4762 4.57079 11.2372 4.12371C10.1773 3.90818 9.07904 3.97956 8.05594 4.3305C8.16967 3.57378 8.47484 2.85868 8.94251 2.25301C9.41018 1.64734 10.0248 1.17119 10.7282 0.869743C11.1443 0.691765 11.0506 0.0754313 10.6002 0.0300832C9.91903 -0.0371485 9.23138 0.00994825 8.56571 0.169427C6.3438 0.694329 4.57086 2.52379 4.12385 4.76281C3.90826 5.82274 3.97964 6.92103 4.33063 7.94414C3.57391 7.83038 2.8588 7.52519 2.25313 7.05751C1.64746 6.58983 1.17131 5.97517 0.869844 5.27184C0.691867 4.85576 0.0755376 4.94945 0.0301292 5.39977C-0.0371113 6.08096 0.0100059 6.7686 0.169532 7.43425C0.69443 9.6563 2.52388 11.4292 4.76288 11.8763C5.8228 12.0918 6.92104 12.0204 7.94413 11.6695C7.8304 12.4262 7.52523 13.1413 7.05756 13.747C6.58989 14.3526 5.97524 14.8288 5.27191 15.1302C4.85578 15.3082 4.94952 15.9245 5.39984 15.9699C6.08104 16.0371 6.76869 15.99 7.43437 15.8305C9.65628 15.3056 11.4292 13.4762 11.8762 11.2372C12.0918 10.1772 12.0204 9.07895 11.6694 8.05583C12.4262 8.16959 13.1413 8.47478 13.7469 8.94246C14.3526 9.41014 14.8288 10.0248 15.1302 10.7281C15.3082 11.1442 15.9245 11.0505 15.9699 10.6002C16.0372 9.91901 15.9901 9.23137 15.8305 8.56572ZM8.00004 9.49999C7.70337 9.49999 7.41335 9.41202 7.16668 9.2472C6.92 9.08238 6.72774 8.84811 6.61421 8.57402C6.50068 8.29993 6.47097 7.99833 6.52885 7.70736C6.58672 7.41639 6.72958 7.14911 6.93936 6.93933C7.14914 6.72955 7.41641 6.58669 7.70739 6.52881C7.99836 6.47093 8.29996 6.50064 8.57405 6.61417C8.84814 6.7277 9.08241 6.91996 9.24723 7.16663C9.41205 7.4133 9.50003 7.70331 9.50003 7.99999C9.50002 8.39781 9.34198 8.77933 9.06068 9.06063C8.77938 9.34194 8.39786 9.49998 8.00004 9.49999Z" fill="#213F7D" fill-opacity="0.6"/>
</svg>
