<svg width="16" height="15" viewBox="0 0 16 15" fill="none" xmlns="http://www.w3.org/2000/svg">
<g clip-path="url(#clip0_169_709)">
<path opacity="0.4" d="M9.33335 12.8775V10.2222C9.33335 10.1043 9.28653 9.99127 9.20318 9.90792C9.11983 9.82457 9.00678 9.77774 8.88891 9.77774H7.11113C6.99326 9.77774 6.88021 9.82457 6.79686 9.90792C6.71351 9.99127 6.66669 10.1043 6.66669 10.2222V12.8808C6.66669 12.9983 6.62017 13.111 6.5373 13.1943C6.45443 13.2776 6.34195 13.3247 6.22446 13.3252L3.11113 13.3333C2.99326 13.3333 2.88021 13.2865 2.79686 13.2031C2.71351 13.1198 2.66669 13.0067 2.66669 12.8889V8.33497L7.78863 4.11691C7.84883 4.06839 7.92382 4.04193 8.00113 4.04193C8.07845 4.04193 8.15344 4.06839 8.21363 4.11691L13.3334 8.3333V12.8889C13.3334 13.0067 13.2865 13.1198 13.2032 13.2031C13.1198 13.2865 13.0068 13.3333 12.8889 13.3333L9.7778 13.3247C9.7192 13.3247 9.66118 13.3131 9.60707 13.2906C9.55297 13.2681 9.50385 13.2351 9.46254 13.1935C9.42123 13.152 9.38856 13.1026 9.36638 13.0484C9.34421 12.9942 9.33299 12.9361 9.33335 12.8775Z" fill="#213F7D" fill-opacity="0.6"/>
<path d="M15.9255 7.45419L15.2172 8.31531C15.1894 8.34916 15.1552 8.3772 15.1166 8.39783C15.0779 8.41846 15.0356 8.43127 14.992 8.43553C14.9484 8.43978 14.9044 8.4354 14.8625 8.42264C14.8206 8.40988 14.7816 8.38898 14.7478 8.36114L8.21362 2.97808C8.15342 2.92956 8.07843 2.9031 8.00112 2.9031C7.9238 2.9031 7.84882 2.92956 7.78862 2.97808L1.25475 8.36114C1.18646 8.41728 1.09866 8.44398 1.01068 8.43539C0.922692 8.42679 0.841724 8.3836 0.785587 8.31531L0.0772555 7.45419C0.020991 7.38604 -0.00590471 7.29833 0.0024817 7.21035C0.0108681 7.12237 0.0538501 7.04132 0.121978 6.98503L7.15251 1.19447C7.39117 0.998077 7.69065 0.890697 7.99973 0.890697C8.30881 0.890697 8.60829 0.998077 8.84695 1.19447L11.3333 3.23919V1.22225C11.3333 1.13384 11.3684 1.04906 11.431 0.986547C11.4935 0.924035 11.5783 0.888916 11.6667 0.888916H13.2222C13.3106 0.888916 13.3954 0.924035 13.4579 0.986547C13.5204 1.04906 13.5555 1.13384 13.5555 1.22225V5.06975L15.8778 6.98392C15.9119 7.01159 15.9402 7.04573 15.9611 7.08438C15.9819 7.12302 15.995 7.16542 15.9994 7.20912C16.0039 7.25283 15.9996 7.29697 15.9869 7.33903C15.9743 7.38109 15.9534 7.42023 15.9255 7.45419Z" fill="#213F7D" fill-opacity="0.6"/>
</g>
<defs>
<clipPath id="clip0_169_709">
<rect width="16" height="14.2222" fill="white"/>
</clipPath>
</defs>
</svg>
