<svg width="16" height="16" viewBox="0 0 16 16" fill="none" xmlns="http://www.w3.org/2000/svg">
<path d="M9.66365 6.62367C9.63177 6.5118 9.5199 6.4318 9.40739 6.44742C9.35927 6.44742 8.36739 6.55929 7.67923 7.61555C7.43923 7.43929 7.02298 7.24742 6.44736 7.3918C6.35111 7.40805 6.27111 7.48805 6.27111 7.59993C6.09485 8.81619 7.13485 9.98361 7.63111 10.4636C7.66298 10.5436 7.71111 10.6236 7.72736 10.6717C7.74361 11.0236 7.77548 11.2636 7.79111 11.2955C7.80736 11.4074 7.91923 11.4874 8.03111 11.4874H8.07923C8.20736 11.4711 8.30297 11.3436 8.2711 11.2155C8.2711 11.2155 8.23923 11.0236 8.22298 10.7192C8.43111 10.4955 9.10298 9.72736 9.43923 9.05555C9.99986 7.88804 9.6636 6.67187 9.6636 6.62371L9.66365 6.62367ZM6.71997 7.83993C7.0881 7.80806 7.3281 7.95181 7.45623 8.06367C7.43998 8.1118 7.4081 8.17555 7.39248 8.23993C7.39248 8.23993 7.39248 8.22368 7.37623 8.22368C7.29623 8.11181 7.15248 8.09556 7.03997 8.15993C6.92809 8.23993 6.91185 8.38367 6.97622 8.49619C7.03997 8.59244 7.15248 8.78432 7.26435 9.11993V9.13618C7.26435 9.21618 7.2806 9.29618 7.2806 9.37618C6.97623 8.92805 6.70372 8.38368 6.71997 7.83992L6.71997 7.83993ZM8.99181 8.81619C8.79994 9.19993 8.47994 9.63244 8.20807 9.95244C8.27182 9.3287 8.44807 8.56057 8.92807 7.90428C9.00807 7.79241 8.99182 7.64803 8.87994 7.56803C8.76807 7.48803 8.62369 7.50428 8.54369 7.61615C8.11181 8.19241 7.88743 8.84802 7.77556 9.43983C7.69556 9.02358 7.71181 8.55983 7.91931 8.12796C8.31931 7.35983 8.89556 7.08796 9.21556 6.9917C9.29619 7.34358 9.34369 8.1117 8.99182 8.81602L8.99181 8.81619Z" fill="#213F7D" fill-opacity="0.6"/>
<path d="M9.77402 6.66963L9.77964 6.66582L9.75982 6.59627C9.71625 6.44334 9.564 6.32762 9.3989 6.34768C9.36766 6.34937 9.2924 6.35927 9.19011 6.38426C9.07397 6.41263 8.91755 6.46171 8.74075 6.54491C8.40542 6.7027 7.99708 6.98318 7.6526 7.47626C7.38761 7.30785 6.97325 7.15788 6.42653 7.29393C6.29055 7.31879 6.17483 7.43287 6.17119 7.59219C6.08092 8.23014 6.30839 8.84742 6.61299 9.35902C6.91327 9.86339 7.29487 10.2758 7.5466 10.521C7.56249 10.5582 7.58043 10.594 7.59543 10.6239L7.59569 10.6244C7.61097 10.6549 7.62171 10.6766 7.62821 10.6922C7.6364 10.8631 7.64822 11.0075 7.66007 11.1146C7.66617 11.1697 7.67236 11.2157 7.67821 11.2506C7.68112 11.268 7.68411 11.2836 7.68715 11.2966C7.68865 11.3031 7.69087 11.3122 7.69412 11.3218C7.72454 11.4852 7.8832 11.5874 8.03111 11.5874H8.07923V11.5882L8.09181 11.5866C8.27317 11.5636 8.41337 11.385 8.36923 11.1959L8.36853 11.1914L8.36487 11.1666C8.36174 11.1447 8.35736 11.1121 8.35247 11.07C8.3436 10.9937 8.33307 10.8866 8.32522 10.7559C8.56205 10.4972 9.20005 9.75682 9.52866 9.10031L9.52867 9.10031L9.52938 9.09883C9.81883 8.49605 9.8759 7.88281 9.8616 7.41681C9.85445 7.18344 9.82936 6.98594 9.80607 6.84366C9.79441 6.77249 9.78321 6.71516 9.77498 6.67436L9.77402 6.66963ZM6.9818 8.07859C6.92085 8.12218 6.88058 8.17847 6.85872 8.23969C6.83687 8.13851 6.8234 8.03686 6.82009 7.93543C6.98554 7.93505 7.1176 7.97423 7.21917 8.02466C7.14071 8.01591 7.05964 8.03346 6.99031 8.07313L6.99005 8.07269L6.9818 8.07859ZM8.89404 8.78798C8.75729 9.05724 8.55609 9.35211 8.35423 9.61323C8.44352 9.07764 8.62863 8.48308 9.00878 7.96332L9.00879 7.96332L9.00941 7.96245C9.11803 7.81055 9.09966 7.60221 8.93811 7.48668C8.82302 7.40439 8.67553 7.39499 8.56056 7.46553C8.76994 7.28696 8.97675 7.18321 9.13929 7.1228C9.2005 7.49403 9.20811 8.15933 8.90236 8.77133L8.89404 8.78798ZM8.00875 8.17271C8.14758 7.90649 8.30801 7.70283 8.4705 7.54702C8.46797 7.55028 8.46549 7.55361 8.46304 7.55701C8.17359 7.94345 7.97559 8.36365 7.84137 8.77626C7.86205 8.57287 7.91467 8.36898 8.00875 8.17271Z" stroke="#213F7D" stroke-opacity="0.6" stroke-width="0.2"/>
<path d="M4.8 12.08C4.67187 12.08 4.56 11.9681 4.56 11.84V5.76C4.56 5.63188 4.67187 5.52 4.8 5.52C4.92812 5.52 5.04 5.63188 5.04 5.76V11.84C5.04 11.9681 4.92812 12.08 4.8 12.08Z" fill="#213F7D" fill-opacity="0.6"/>
<path d="M4.46 11.84C4.46 12.0234 4.61664 12.18 4.8 12.18C4.98335 12.18 5.14 12.0234 5.14 11.84V5.76C5.14 5.57665 4.98335 5.42 4.8 5.42C4.61664 5.42 4.46 5.57665 4.46 5.76V11.84Z" stroke="#213F7D" stroke-opacity="0.6" stroke-width="0.2"/>
<path d="M3.19996 12.08C3.07184 12.08 2.95996 11.9681 2.95996 11.84V5.76C2.95996 5.63188 3.07184 5.52 3.19996 5.52C3.32809 5.52 3.43996 5.63188 3.43996 5.76V11.84C3.43996 11.9681 3.32809 12.08 3.19996 12.08Z" fill="#213F7D" fill-opacity="0.6"/>
<path d="M2.85996 11.84C2.85996 12.0234 3.01661 12.18 3.19996 12.18C3.38331 12.18 3.53996 12.0234 3.53996 11.84V5.76C3.53996 5.57665 3.38331 5.42 3.19996 5.42C3.01661 5.42 2.85996 5.57665 2.85996 5.76V11.84Z" stroke="#213F7D" stroke-opacity="0.6" stroke-width="0.2"/>
<path d="M11.2 12.08C11.0718 12.08 10.96 11.9681 10.96 11.84V5.76C10.96 5.63188 11.0718 5.52 11.2 5.52C11.3281 5.52 11.44 5.63188 11.44 5.76V11.84C11.44 11.9681 11.3281 12.08 11.2 12.08Z" fill="#213F7D" fill-opacity="0.6"/>
<path d="M10.86 11.84C10.86 12.0234 11.0166 12.18 11.2 12.18C11.3833 12.18 11.54 12.0234 11.54 11.84V5.76C11.54 5.57665 11.3833 5.42 11.2 5.42C11.0166 5.42 10.86 5.57665 10.86 5.76V11.84Z" stroke="#213F7D" stroke-opacity="0.6" stroke-width="0.2"/>
<path d="M12.8 12.08C12.6719 12.08 12.56 11.9681 12.56 11.84V5.76C12.56 5.63188 12.6719 5.52 12.8 5.52C12.9281 5.52 13.04 5.63188 13.04 5.76V11.84C13.04 11.9681 12.9281 12.08 12.8 12.08Z" fill="#213F7D" fill-opacity="0.6"/>
<path d="M12.46 11.84C12.46 12.0234 12.6166 12.18 12.8 12.18C12.9834 12.18 13.14 12.0234 13.14 11.84V5.76C13.14 5.57665 12.9834 5.42 12.8 5.42C12.6166 5.42 12.46 5.57665 12.46 5.76V11.84Z" stroke="#213F7D" stroke-opacity="0.6" stroke-width="0.2"/>
<path d="M13.36 5.2H2.63998C2.5281 5.2 2.43185 5.12 2.41623 5.02374C2.38436 4.91187 2.43248 4.81561 2.52811 4.75187L7.88811 1.55187C7.96811 1.50374 8.06436 1.50374 8.12811 1.55187L13.4718 4.73555C13.5518 4.76743 13.6155 4.86367 13.6155 4.95929C13.5999 5.08804 13.488 5.19992 13.3599 5.19992L13.36 5.2ZM3.50366 4.72H12.48L7.99998 2.03184L3.50366 4.72Z" fill="#213F7D" fill-opacity="0.6"/>
<path d="M13.5818 5.3H13.36H2.63998C2.48642 5.3 2.34561 5.1924 2.31856 5.04571C2.27547 4.88566 2.35042 4.75014 2.47264 4.66866L2.47678 4.6659L2.47685 4.66601L7.83656 1.46618C7.8366 1.46615 7.83664 1.46613 7.83669 1.4661L7.83685 1.46601L7.88811 1.55187C7.96811 1.50374 8.06436 1.50374 8.12811 1.55187L13.5818 5.3ZM13.5818 5.3L13.5366 5.24881C13.6335 5.18884 13.7012 5.08328 13.7148 4.97134L13.7155 4.97143V4.95929C13.7155 4.8291 13.6337 4.69699 13.5169 4.64605L8.18346 1.46844L13.5818 5.3ZM12.119 4.62H3.8658L7.99988 2.1484L12.119 4.62Z" stroke="#213F7D" stroke-opacity="0.6" stroke-width="0.2"/>
<path d="M13.36 12.88H2.63996C2.51184 12.88 2.39996 12.7681 2.39996 12.64C2.39996 12.5119 2.51184 12.4 2.63996 12.4H13.36C13.4881 12.4 13.6 12.5119 13.6 12.64C13.6 12.7681 13.4881 12.88 13.36 12.88Z" fill="#213F7D" fill-opacity="0.6"/>
<path d="M2.63996 12.98H13.36C13.5433 12.98 13.7 12.8234 13.7 12.64C13.7 12.4566 13.5433 12.3 13.36 12.3H2.63996C2.45661 12.3 2.29996 12.4566 2.29996 12.64C2.29996 12.8234 2.45661 12.98 2.63996 12.98Z" stroke="#213F7D" stroke-opacity="0.6" stroke-width="0.2"/>
<path d="M14.16 13.68H1.83998C1.71185 13.68 1.59998 13.5681 1.59998 13.44C1.59998 13.3119 1.71185 13.2 1.83998 13.2H14.16C14.2881 13.2 14.4 13.3119 14.4 13.44C14.4 13.5681 14.2881 13.68 14.16 13.68Z" fill="#213F7D" fill-opacity="0.6"/>
<path d="M1.83998 13.78H14.16C14.3433 13.78 14.5 13.6234 14.5 13.44C14.5 13.2566 14.3433 13.1 14.16 13.1H1.83998C1.65662 13.1 1.49998 13.2566 1.49998 13.44C1.49998 13.6234 1.65662 13.78 1.83998 13.78Z" stroke="#213F7D" stroke-opacity="0.6" stroke-width="0.2"/>
<path d="M14.96 14.48H1.03999C0.911863 14.48 0.799988 14.3681 0.799988 14.24C0.799988 14.1119 0.911863 14 1.03999 14H14.96C15.0881 14 15.2 14.1119 15.2 14.24C15.2 14.3681 15.0881 14.48 14.96 14.48Z" fill="#213F7D" fill-opacity="0.6"/>
<path d="M1.03999 14.58H14.96C15.1433 14.58 15.3 14.4234 15.3 14.24C15.3 14.0566 15.1433 13.9 14.96 13.9H1.03999C0.856635 13.9 0.699988 14.0566 0.699988 14.24C0.699988 14.4234 0.856635 14.58 1.03999 14.58Z" stroke="#213F7D" stroke-opacity="0.6" stroke-width="0.2"/>
</svg>
