<svg width="16" height="13" viewBox="0 0 16 13" fill="none" xmlns="http://www.w3.org/2000/svg">
<g clip-path="url(#clip0_169_983)">
<path opacity="0.4" d="M15.915 3.98999C15.9697 4.0464 16 4.12198 15.9996 4.20051C15.9991 4.27903 15.9679 4.35424 15.9125 4.40999L12.38 7.91499C12.3523 7.94247 12.3195 7.9642 12.2834 7.97895C12.2472 7.99369 12.2085 8.00117 12.1695 8.00093C12.1305 8.0007 12.0919 7.99277 12.056 7.97759C12.02 7.96242 11.9874 7.94029 11.96 7.91249L9.91755 5.85499C9.89008 5.82729 9.86834 5.79443 9.8536 5.7583C9.83885 5.72218 9.83138 5.68349 9.83161 5.64448C9.83184 5.60546 9.83977 5.56687 9.85495 5.53092C9.87013 5.49497 9.89225 5.46237 9.92005 5.43499L10.6225 4.73749C10.6503 4.71002 10.6831 4.68829 10.7192 4.67354C10.7554 4.6588 10.794 4.65132 10.8331 4.65156C10.8721 4.65179 10.9107 4.65972 10.9466 4.6749C10.9826 4.69007 11.0152 4.71219 11.0425 4.73999L12.18 5.88499L14.8 3.28499C14.8278 3.25752 14.8606 3.23579 14.8967 3.22104C14.9329 3.2063 14.9715 3.19882 15.0106 3.19906C15.0496 3.19929 15.0882 3.20722 15.1241 3.2224C15.1601 3.23757 15.1927 3.25969 15.22 3.28749L15.915 3.98999Z" fill="#213F7D" fill-opacity="0.6"/>
<path d="M5.6 6.39994C6.2329 6.39994 6.85159 6.21226 7.37782 5.86064C7.90406 5.50902 8.31421 5.00925 8.55641 4.42453C8.79862 3.8398 8.86199 3.19639 8.73851 2.57565C8.61504 1.95491 8.31027 1.38473 7.86274 0.937199C7.41521 0.489671 6.84503 0.1849 6.22429 0.0614275C5.60355 -0.0620452 4.96014 0.00132546 4.37541 0.243526C3.79069 0.485726 3.29092 0.895878 2.9393 1.42212C2.58768 1.94835 2.4 2.56704 2.4 3.19994C2.4 4.04863 2.73714 4.86257 3.33726 5.46268C3.93737 6.0628 4.75131 6.39994 5.6 6.39994ZM7.84 7.19994H7.4225C6.85106 7.46346 6.22927 7.59993 5.6 7.59993C4.97073 7.59993 4.34894 7.46346 3.7775 7.19994H3.36C2.46893 7.20014 1.61442 7.5542 0.984341 8.18428C0.354262 8.81436 0.000198832 9.66887 0 10.5599L0 11.5999C0 11.9182 0.126428 12.2234 0.351472 12.4485C0.576515 12.6735 0.88174 12.7999 1.2 12.7999H10C10.3183 12.7999 10.6235 12.6735 10.8485 12.4485C11.0736 12.2234 11.2 11.9182 11.2 11.5999V10.5599C11.1998 9.66887 10.8457 8.81436 10.2157 8.18428C9.58558 7.5542 8.73107 7.20014 7.84 7.19994Z" fill="#213F7D" fill-opacity="0.6"/>
</g>
<defs>
<clipPath id="clip0_169_983">
<rect width="16" height="12.8" fill="white"/>
</clipPath>
</defs>
</svg>
